HIERARCHY
ROOT Hips
{
  OFFSET 5.84602e-005 68.8428 3.50346
  CHANNELS 6 Xposition Yposition Zposition Zrotation Xrotation Yrotation
  JOINT Spine
  {
    OFFSET 0 8.597 -4.6522
    CHANNELS 3 Zrotation Xrotation Yrotation
    JOINT Spine1
    {
      OFFSET 0 7.8454 0.4098
      CHANNELS 3 Zrotation Xrotation Yrotation
      JOINT Spine2
      {
        OFFSET 0 9.7078 -2.1609
        CHANNELS 3 Zrotation Xrotation Yrotation
        JOINT Neck
        {
          OFFSET 0 21.8761 -0.4549
          CHANNELS 3 Zrotation Xrotation Yrotation
          JOINT Head
          {
            OFFSET 0 12.3537 3.3602
            CHANNELS 3 Zrotation Xrotation Yrotation
            End Site
            {
              OFFSET 0.0001 18.9506 0.5657
            }
          }
        }
        JOINT LeftShoulder
        {
          OFFSET 2.2086 21.1115 7.2329
          CHANNELS 3 Zrotation Xrotation Yrotation
          JOINT LeftArm
          {
            OFFSET 13.1193 3.0282 -4.8998
            CHANNELS 3 Zrotation Xrotation Yrotation
            JOINT LeftForeArm
            {
              OFFSET 27.4081 -0.0973053 -0.2375
              CHANNELS 3 Zrotation Xrotation Yrotation
              JOINT LeftHand
              {
                OFFSET 22.8641 0.0662994 -0.1369
                CHANNELS 3 Zrotation Xrotation Yrotation
                JOINT LeftHandIndex1
                {
                  OFFSET 8.8614 0.775009 2.4612
                  CHANNELS 3 Zrotation Xrotation Yrotation
                  JOINT LeftHandIndex2
                  {
                    OFFSET 3.3146 -0.808304 0.5841
                    CHANNELS 3 Zrotation Xrotation Yrotation
                    JOINT LeftHandIndex3
                    {
                      OFFSET 2.2628 -0.552002 0.3989
                      CHANNELS 3 Zrotation Xrotation Yrotation
                      End Site
                      {
                        OFFSET 1.6102 -0.4807 0.2612
                      }
                    }
                  }
                }
                JOINT LeftHandMiddle1
                {
                  OFFSET 8.9937 0.895004 0.2143
                  CHANNELS 3 Zrotation Xrotation Yrotation
                  JOINT LeftHandMiddle2
                  {
                    OFFSET 4.0984 0.0113983 -0.0242
                    CHANNELS 3 Zrotation Xrotation Yrotation
                    JOINT LeftHandMiddle3
                    {
                      OFFSET 2.2716 0.00689697 -0.0138001
                      CHANNELS 3 Zrotation Xrotation Yrotation
                      End Site
                      {
                        OFFSET 2.0404 -0.1441 0.0027
                      }
                    }
                  }
                }
                JOINT LeftHandRing1
                {
                  OFFSET 8.5234 0.597198 -2.0164
                  CHANNELS 3 Zrotation Xrotation Yrotation
                  JOINT LeftHandRing2
                  {
                    OFFSET 3.7188 -0.188293 -0.2328
                    CHANNELS 3 Zrotation Xrotation Yrotation
                    JOINT LeftHandRing3
                    {
                      OFFSET 2.1191 -0.106598 -0.1332
                      CHANNELS 3 Zrotation Xrotation Yrotation
                      End Site
                      {
                        OFFSET 1.8737 -0.2304 -0.0886
                      }
                    }
                  }
                }
                JOINT LeftHandPinky1
                {
                  OFFSET 7.9094 -0.601089 -3.4825
                  CHANNELS 3 Zrotation Xrotation Yrotation
                  JOINT LeftHandPinky2
                  {
                    OFFSET 2.2874 -0.477005 -0.6314
                    CHANNELS 3 Zrotation Xrotation Yrotation
                    JOINT LeftHandPinky3
                    {
                      OFFSET 1.6774 -0.349396 -0.4633
                      CHANNELS 3 Zrotation Xrotation Yrotation
                      End Site
                      {
                        OFFSET 1.4888 -0.4091 -0.3416
                      }
                    }
                  }
                }
                JOINT LeftHandThumb1
                {
                  OFFSET 1.833 -1.3875 1.3896
                  CHANNELS 3 Zrotation Xrotation Yrotation
                  JOINT LeftHandThumb2
                  {
                    OFFSET 3.4129 -1.121 2.5732
                    CHANNELS 3 Zrotation Xrotation Yrotation
                    JOINT LeftHandThumb3
                    {
                      OFFSET 2.2474 -0.804199 1.6192
                      CHANNELS 3 Zrotation Xrotation Yrotation
                      End Site
                      {
                        OFFSET 1.6527 -0.5689 1.1317
                      }
                    }
                  }
                }
              }
            }
          }
        }
        JOINT RightShoulder
        {
          OFFSET -2.2086 21.1115 7.2329
          CHANNELS 3 Zrotation Xrotation Yrotation
          JOINT RightArm
          {
            OFFSET -13.1216 3.0287 -4.9007
            CHANNELS 3 Zrotation Xrotation Yrotation
            JOINT RightForeArm
            {
              OFFSET -27.4081 -0.0973053 -0.2375
              CHANNELS 3 Zrotation Xrotation Yrotation
              JOINT RightHand
              {
                OFFSET -22.8641 0.0664063 -0.1369
                CHANNELS 3 Zrotation Xrotation Yrotation
                JOINT RightHandIndex1
                {
                  OFFSET -8.8614 0.774994 2.4612
                  CHANNELS 3 Zrotation Xrotation Yrotation
                  JOINT RightHandIndex2
                  {
                    OFFSET -3.3146 -0.808304 0.5841
                    CHANNELS 3 Zrotation Xrotation Yrotation
                    JOINT RightHandIndex3
                    {
                      OFFSET -2.2628 -0.552002 0.3989
                      CHANNELS 3 Zrotation Xrotation Yrotation
                      End Site
                      {
                        OFFSET -1.6102 -0.4807 0.2612
                      }
                    }
                  }
                }
                JOINT RightHandMiddle1
                {
                  OFFSET -8.9937 0.894989 0.2143
                  CHANNELS 3 Zrotation Xrotation Yrotation
                  JOINT RightHandMiddle2
                  {
                    OFFSET -4.0984 0.0113983 -0.0242
                    CHANNELS 3 Zrotation Xrotation Yrotation
                    JOINT RightHandMiddle3
                    {
                      OFFSET -2.2716 0.00691223 -0.0138001
                      CHANNELS 3 Zrotation Xrotation Yrotation
                      End Site
                      {
                        OFFSET -2.0404 -0.1441 0.0027
                      }
                    }
                  }
                }
                JOINT RightHandRing1
                {
                  OFFSET -8.5234 0.597198 -2.0164
                  CHANNELS 3 Zrotation Xrotation Yrotation
                  JOINT RightHandRing2
                  {
                    OFFSET -3.7188 -0.188309 -0.2328
                    CHANNELS 3 Zrotation Xrotation Yrotation
                    JOINT RightHandRing3
                    {
                      OFFSET -2.1191 -0.106598 -0.1332
                      CHANNELS 3 Zrotation Xrotation Yrotation
                      End Site
                      {
                        OFFSET -1.8737 -0.2304 -0.0886
                      }
                    }
                  }
                }
                JOINT RightHandPinky1
                {
                  OFFSET -7.9094 -0.601105 -3.4825
                  CHANNELS 3 Zrotation Xrotation Yrotation
                  JOINT RightHandPinky2
                  {
                    OFFSET -2.2874 -0.477005 -0.6314
                    CHANNELS 3 Zrotation Xrotation Yrotation
                    JOINT RightHandPinky3
                    {
                      OFFSET -1.6774 -0.349396 -0.4633
                      CHANNELS 3 Zrotation Xrotation Yrotation
                      End Site
                      {
                        OFFSET -1.4888 -0.4091 -0.3416
                      }
                    }
                  }
                }
                JOINT RightHandThumb1
                {
                  OFFSET -1.833 -1.38751 1.3896
                  CHANNELS 3 Zrotation Xrotation Yrotation
                  JOINT RightHandThumb2
                  {
                    OFFSET -3.41299 -1.12099 2.5732
                    CHANNELS 3 Zrotation Xrotation Yrotation
                    JOINT RightHandThumb3
                    {
                      OFFSET -2.24741 -0.804108 1.6192
                      CHANNELS 3 Zrotation Xrotation Yrotation
                      End Site
                      {
                        OFFSET -1.6527 -0.5689 1.1317
                      }
                    }
                  }
                }
              }
            }
          }
        }
      }
    }
  }
  JOINT RightUpLeg
  {
    OFFSET -9.1966 3.8861 -0.7581
    CHANNELS 3 Zrotation Xrotation Yrotation
    JOINT RightLeg
    {
      OFFSET -0.7359 -41.0265 0
      CHANNELS 3 Zrotation Xrotation Yrotation
      JOINT RightFoot
      {
        OFFSET 0 -40.2855 0
        CHANNELS 3 Zrotation Xrotation Yrotation
        JOINT RightToeBase
        {
          OFFSET 0 -5.6122 11.7359
          CHANNELS 3 Zrotation Xrotation Yrotation
          End Site
          {
            OFFSET 0 0 7.8731
          }
        }
      }
    }
  }
  JOINT LeftUpLeg
  {
    OFFSET 9.1965 3.8864 -0.7581
    CHANNELS 3 Zrotation Xrotation Yrotation
    JOINT LeftLeg
    {
      OFFSET 0.7359 -41.0268 0
      CHANNELS 3 Zrotation Xrotation Yrotation
      JOINT LeftFoot
      {
        OFFSET 0 -40.2855 0
        CHANNELS 3 Zrotation Xrotation Yrotation
        JOINT LeftToeBase
        {
          OFFSET 0 -5.6122 11.7359
          CHANNELS 3 Zrotation Xrotation Yrotation
          End Site
          {
            OFFSET 0 0 7.8731
          }
        }
      }
    }
  }
}
MOTION
Frames:	4
Frame Time:	0.0333333
5.84602e-005 68.8428 3.50346 0 0 -0 0 0 -0 0 0 -0 0 0 -0 0 0 -0 0 0 -0 0 0 -0 0 0 -0 0 0 -0 0 0 -0 0 0 -0 0 0 -0 0 0 -0 0 0 -0 -0.0146107 -8.87603e-005 -2.63497e-007 2.99804e-018 -2.42657e-020 -1.42182e-022 0 0 -0 -0.0187562 -0.001176 5.858e-005 5.06224e-018 3.88251e-019 1.21329e-020 0 0 -0 -0.012269 -0.00324817 0.000675346 -1.74678e-018 3.88251e-019 -0 0 0 -0 0 0 -0 0 0 -0 0 0 -0 0 0 -0 0 0 -0 0 0 -0 0 0 -0 0 0 -0 0 0 -0 0 0 -0 0.0149955 -9.10982e-005 2.64101e-007 -9.69331e-018 1.21329e-020 -4.7394e-023 0 0 -0 0.0189956 -0.00119102 -5.96516e-005 -5.41541e-019 0 2.42657e-020 0 0 -0 0.0122698 -0.00324857 -0.000673756 -2.00796e-019 0 -1.94126e-019 0 0 -0 0 0 -0 0 0 -0 3.39842 1.33031 -0.0637918 -5.65207e-008 0.834868 -0.000436188 -3.39935 -2.16518 -0.0642563 -8.89002e-024 -1.18485e-023 -1.48106e-024 -3.39844 1.35642 0.0640283 -3.18788e-007 0.782166 -0.000588827 3.39931 -2.13858 0.0634662 1.1399e-023 0 -0 
29.4309 65.775 5.03436 0 0.0724292 -0 -0.183764 3.02469 -0.0993235 -0.363029 6.04963 -0.189313 -0.36303 6.04963 -0.189313 2.50204e-006 -0.556038 4.89316e-007 -9.59327e-008 -0.454623 -8.67591e-008 -5.92789 -0.144057 -3.88432e-007 -42.7888 -0.334344 -2.9643 -2.75845e-007 -2.4702e-006 -19.2604 -5.18542 -4.9104e-007 -5.47944e-007 -1.82882e-014 -4.77083e-015 3.18055e-015 -9.14409e-015 -3.18055e-015 1.59028e-015 -1.23246e-014 -1.59028e-015 3.18055e-015 -1.82882e-014 -4.77083e-015 3.18055e-015 -0.0145581 -8.86121e-005 2.28329e-007 -4.95913e-007 2.21027e-007 -8.56841e-008 -1.82882e-014 -4.77083e-015 3.18055e-015 -0.0187943 -0.00117855 5.92762e-005 9.54166e-015 1.59028e-015 -0 -1.82882e-014 -4.77083e-015 3.18055e-015 -0.0122719 -0.00325002 0.000676011 -4.95608e-007 2.20604e-007 -8.55843e-008 -1.82882e-014 -4.77083e-015 3.18055e-015 -9.14409e-015 -3.18055e-015 1.59028e-015 -1.23246e-014 -1.59028e-015 3.18055e-015 5.9253 -0.144238 9.31191e-007 42.7858 -0.335699 2.96202 -1.80178e-005 -3.24927e-006 19.2577 5.18284 4.18686e-007 1.39058e-006 -4.89705e-008 -3.76319e-007 1.94729e-007 1.39149e-015 1.59028e-015 -4.77083e-015 -4.89705e-008 -3.76319e-007 1.94729e-007 -4.89705e-008 -3.76319e-007 1.94729e-007 0.0149717 -9.16008e-005 -1.02778e-006 -2.81385e-007 -5.57856e-007 2.14935e-007 -4.89705e-008 -3.76319e-007 1.94729e-007 0.0190593 -0.00119545 -6.07137e-005 -4.89654e-008 -3.76287e-007 1.94792e-007 -4.89705e-008 -3.76319e-007 1.94729e-007 0.0122818 -0.00324841 -0.000677026 -4.89609e-008 -3.76299e-007 1.9477e-007 -4.89705e-008 -3.76319e-007 1.94729e-007 1.39149e-015 1.59028e-015 -4.77083e-015 -4.89705e-008 -3.76319e-007 1.94729e-007 -3.05933 -15.8532 -10.0122 -1.38587 33.6176 0.993459 7.89418 -17.1104 -1.57234 -6.97198e-009 6.12121e-008 -3.34306e-009 3.84825 -15.7284 10.0986 1.19109 33.399 -0.910905 -8.47973 -16.7926 1.30108 8.52984e-007 -4.05387e-009 -8.43918e-007 
42.6747 64.3881 5.78682 -0 -0.25347 -0 -0.256556 4.45642 -0.154488 -0.503312 8.91348 -0.290213 -0.503312 8.91348 -0.290213 -2.79024e-006 -1.06085 -2.39054e-006 2.33917e-007 -0.659211 1.13275e-007 -8.59545 -0.208844 3.47378e-006 -62.0551 -0.484079 -4.29831 1.03418e-005 1.40237e-008 -27.9275 -7.51889 -2.56578e-008 -2.3655e-006 1.27061e-008 -8.03178e-008 -6.91159e-008 -1.27061e-008 8.03178e-008 6.91159e-008 1.58826e-008 -1.00397e-007 -8.63949e-008 1.27061e-008 -8.03178e-008 -6.91159e-008 -0.0146156 -8.97125e-005 1.43187e-006 3.72508e-006 1.96606e-007 2.42623e-007 1.27061e-008 -8.03178e-008 -6.91159e-008 -0.0187939 -0.00117849 5.90471e-005 1.58817e-008 -1.00383e-007 -8.64115e-008 1.27061e-008 -8.03178e-008 -6.91159e-008 -0.0123698 -0.00327525 0.000682877 1.58796e-008 -1.00388e-007 -8.64062e-008 1.27061e-008 -8.03178e-008 -6.91159e-008 -1.27061e-008 8.03178e-008 6.91159e-008 1.58826e-008 -1.00397e-007 -8.63949e-008 8.59168 -0.209109 -4.3651e-006 62.0508 -0.486039 4.29501 1.48274e-006 -1.1079e-006 27.9237 7.51512 -1.25799e-006 5.39557e-007 -3.2981e-006 5.2205e-007 -3.57382e-007 -9.11176e-007 5.93002e-007 -1.84686e-007 4.77079e-008 3.28601e-007 -2.68273e-007 -3.2981e-006 5.2205e-007 -3.57382e-007 0.0149649 -9.07431e-005 -1.58969e-006 3.37758e-006 1.19041e-008 -7.85655e-008 -3.2981e-006 5.2205e-007 -3.57382e-007 0.018974 -0.0011884 -5.9604e-005 4.77054e-008 3.28556e-007 -2.68328e-007 -3.2981e-006 5.2205e-007 -3.57382e-007 0.012267 -0.00324604 -0.000676292 4.76987e-008 3.28572e-007 -2.68309e-007 -3.2981e-006 5.2205e-007 -3.57382e-007 -9.11176e-007 5.93002e-007 -1.84686e-007 4.77079e-008 3.28601e-007 -2.68273e-007 -7.76722 -22.433 -15.1026 -2.75176 47.3749 1.82313 12.7498 -23.3467 -2.36611 -1.39149e-015 7.95139e-016 3.18055e-015 8.90641 -22.2601 15.2183 2.42026 47.0766 -1.66418 -13.6536 -22.8972 1.95515 -1.92608e-008 -1.04696e-007 -7.53903e-009 
39.7317 64.7456 5.76124 -0 -0.977794 -0 -0.238331 4.29613 -0.140113 -0.468073 8.59277 -0.263362 -0.468073 8.59277 -0.263362 -3.53702e-007 -1.51448 9.76053e-008 -2.6706e-007 -0.613743 -1.29277e-008 -8.00266 -0.194475 -6.23087e-007 -57.7731 -0.450871 -4.00186 3.75399e-006 1.75241e-007 -26.0015 -7.00032 1.31531e-006 -1.02894e-006 -2.17945e-008 -4.3877e-007 7.32501e-007 2.62132e-008 -1.66807e-007 -1.30543e-007 -8.68786e-009 -5.22174e-007 6.67229e-007 -2.17945e-008 -4.3877e-007 7.32501e-007 -0.0146122 -8.9012e-005 -8.46931e-007 -8.70068e-009 -5.22259e-007 6.67162e-007 -2.17945e-008 -4.3877e-007 7.32501e-007 -0.0187717 -0.00117669 5.82277e-005 1.15899e-006 -8.25285e-007 1.10168e-006 -2.17945e-008 -4.3877e-007 7.32501e-007 -0.0122168 -0.00323231 0.000671548 -8.68327e-009 -5.22248e-007 6.67174e-007 -2.17945e-008 -4.3877e-007 7.32501e-007 2.62132e-008 -1.66807e-007 -1.30543e-007 -8.68786e-009 -5.22174e-007 6.67229e-007 7.99916 -0.194722 1.769e-006 57.7691 -0.452697 3.99878 5.01234e-006 7.68103e-007 25.9979 6.99685 -1.4839e-006 1.49434e-006 3.07747e-008 2.12516e-007 -1.58336e-007 -4.30845e-008 -2.97522e-007 2.21671e-007 6.77042e-008 4.67535e-007 -3.4834e-007 3.07747e-008 2.12516e-007 -1.58336e-007 0.0149999 -9.24043e-005 1.63094e-006 6.77034e-008 4.6749e-007 -3.48401e-007 3.07747e-008 2.12516e-007 -1.58336e-007 0.0189933 -0.00119141 -5.93262e-005 6.76996e-008 4.67478e-007 -3.48418e-007 3.07747e-008 2.12516e-007 -1.58336e-007 0.0122638 -0.00324699 -0.0006759 6.76912e-008 4.67499e-007 -3.48392e-007 3.07747e-008 2.12516e-007 -1.58336e-007 -4.30845e-008 -2.97522e-007 2.21671e-007 6.77042e-008 4.67535e-007 -3.4834e-007 -6.5957 -20.0546 -13.8654 -2.38923 44.3442 1.59663 11.6875 -21.9727 -2.17837 -1.76361e-008 1.05008e-007 -7.18497e-009 7.65024 -19.8941 13.9627 2.09314 44.0636 -1.45918 -12.5174 -21.5522 1.79996 -3.19573e-008 -4.27119e-008 -1.69089e-006 
